HIERARCHY
ROOT SpineBase
{
  OFFSET 0.000000 0.000000 0.000000
  CHANNELS 6 Xposition Yposition Zposition Zrotation Xrotation Yrotation
  JOINT SpineMid
  {
    OFFSET 0.000000 31.626203 0.000000
    CHANNELS 3 Zrotation Xrotation Yrotation
    JOINT SpineShoulder
    {
      OFFSET -0.292284 23.489963 -0.764260
      CHANNELS 3 Zrotation Xrotation Yrotation
      JOINT Neck
      {
        OFFSET -0.166680 7.777166 -0.601044
        CHANNELS 3 Zrotation Xrotation Yrotation
        JOINT Head
        {
          OFFSET -1.306787 10.444677 6.922443
          CHANNELS 3 Zrotation Xrotation Yrotation
          End Site
          {
            OFFSET 0 0 0
          }
        }
      }
      JOINT ShoulderLeft
      {
        OFFSET -4.610657 -1.915463 25.495607
        CHANNELS 3 Zrotation Xrotation Yrotation
        JOINT ElbowLeft
        {
          OFFSET -9.124357 -20.348053 -21.751373
          CHANNELS 3 Zrotation Xrotation Yrotation
          JOINT WristLeft
          {
            OFFSET -8.278030 -23.887600 -1.528662
            CHANNELS 3 Zrotation Xrotation Yrotation
            JOINT HandLeft
            {
              OFFSET 1.931748 -7.569183 3.477369
              CHANNELS 3 Zrotation Xrotation Yrotation
              JOINT HandTipLeft
              {
                OFFSET 0.134878 -0.448087 0.019825
                CHANNELS 3 Zrotation Xrotation Yrotation
                End Site
                {
                  OFFSET 0 0 0
                }
              }
              JOINT ThumbLeft
              {
                OFFSET -0.146819 -0.187424 -0.415819
                CHANNELS 3 Zrotation Xrotation Yrotation
                End Site
                {
                  OFFSET 0 0 0
                }
              }
            }
          }
        }
      }
      JOINT ShoulderRight
      {
        OFFSET 0.422513 -5.105018 -11.711555
        CHANNELS 3 Zrotation Xrotation Yrotation
        JOINT ElbowRight
        {
          OFFSET -13.330262 -18.851016 -1.073505
          CHANNELS 3 Zrotation Xrotation Yrotation
          JOINT WristRight
          {
            OFFSET -1.418224 -19.006410 9.239452
            CHANNELS 3 Zrotation Xrotation Yrotation
            JOINT HandRight
            {
              OFFSET 3.287314 -3.981905 -0.111062
              CHANNELS 3 Zrotation Xrotation Yrotation
              JOINT HandTipRight
              {
                OFFSET -1.463593 -7.187434 1.233997
                CHANNELS 3 Zrotation Xrotation Yrotation
                End Site
                {
                  OFFSET 0 0 0
                }
              }
              JOINT ThumbRight
              {
                OFFSET 0.345426 2.932661 2.639391
                CHANNELS 3 Zrotation Xrotation Yrotation
                End Site
                {
                  OFFSET 0 0 0
                }
              }
            }
          }
        }
      }
    }
  }
  JOINT HipLeft
  {
    OFFSET -1.968840 2.035378 -2.353763
    CHANNELS 3 Zrotation Xrotation Yrotation
    JOINT KneeLeft
    {
      OFFSET 1.006342 -37.620513 -5.690062
      CHANNELS 3 Zrotation Xrotation Yrotation
      JOINT AnkleLeft
      {
        OFFSET 4.598112 -41.021489 0.496430
        CHANNELS 3 Zrotation Xrotation Yrotation
        JOINT FootLeft
        {
          OFFSET 0.352123 -5.583538 0.315590
          CHANNELS 3 Zrotation Xrotation Yrotation
          End Site
          {
            OFFSET 0 0 0
          }
        }
      }
    }
  }
  JOINT HipRight
  {
    OFFSET 0.010262 0.551602 -4.875445
    CHANNELS 3 Zrotation Xrotation Yrotation
    JOINT KneeRight
    {
      OFFSET 11.196441 -34.544193 4.159584
      CHANNELS 3 Zrotation Xrotation Yrotation
      JOINT AnkleRight
      {
        OFFSET 2.747347 -28.776475 2.755625
        CHANNELS 3 Zrotation Xrotation Yrotation
        JOINT FootRight
        {
          OFFSET -10.828055 -3.476213 -4.491546
          CHANNELS 3 Zrotation Xrotation Yrotation
          End Site
          {
            OFFSET 0 0 0
          }
        }
      }
    }
  }
}
MOTION
Frames: 6
Frame Time: 0.033333
77.165814 82.190161 273.233023 -0.000000 0.000000 51.873974 0.000000 -0.000000 -51.873974 -0.000000 0.000000 0.000000 -0.000000 0.000000 0.000000 0.000000 0.000000 0.000000 -0.000000 0.000000 0.000000 -0.000000 0.000000 0.000000 -0.000000 0.000000 0.000000 -0.000000 0.000000 0.000000 0.000000 0.000000 0.000000 0.000000 0.000000 0.000000 -0.000000 0.000000 0.000000 -0.000000 0.000000 0.000000 -0.000000 0.000000 0.000000 -0.000000 0.000000 0.000000 0.000000 0.000000 0.000000 0.000000 0.000000 0.000000 0.000000 -0.000000 -51.873974 -0.000000 0.000000 0.000000 -0.000000 0.000000 0.000000 0.000000 0.000000 0.000000 0.000000 -0.000000 -51.873974 -0.000000 0.000000 0.000000 -0.000000 0.000000 0.000000 0.000000 0.000000 0.000000
77.284565 82.208401 273.282242 0.080916 -0.042511 52.535063 -0.015477 0.090083 -52.535021 -0.000000 0.000000 0.000000 -0.000000 0.000000 0.000000 0.000000 0.000000 0.000000 -0.000000 0.000000 0.000000 -0.000000 0.000000 0.000000 -0.000000 0.000000 0.000000 -1.818952 3.898988 1.162785 0.000000 0.000000 0.000000 0.000000 0.000000 0.000000 -0.725346 -0.740153 0.557723 0.732576 0.732997 -0.567094 1.303768 1.416837 1.106451 -2.620520 2.386494 -2.129121 0.000000 0.000000 0.000000 0.000000 0.000000 0.000000 -0.015477 0.090083 -52.535021 -0.000000 0.000000 0.000000 -26.626731 10.956410 1.797442 0.000000 0.000000 0.000000 -0.015477 0.090083 -52.535021 0.828863 -0.373173 0.046398 -0.828578 0.373805 -0.040996 0.000000 0.000000 0.000000
77.366136 82.228682 273.307562 0.140610 -0.064163 53.139941 -0.033009 0.150991 -53.139819 -0.000000 0.000000 0.000000 -0.569290 -0.550582 0.306858 0.000000 0.000000 0.000000 -0.000000 0.000000 0.000000 -0.000000 0.000000 0.000000 -0.000000 0.000000 0.000000 -3.608983 7.551223 2.384024 0.000000 0.000000 0.000000 0.000000 0.000000 0.000000 -1.336350 -1.291060 0.966667 1.358271 1.267976 -0.996756 1.540822 3.386556 2.675697 -4.097673 3.667526 -4.640001 0.000000 0.000000 0.000000 0.000000 0.000000 0.000000 -0.033009 0.150991 -53.139819 -0.000000 0.000000 0.000000 -47.087938 17.849785 6.379423 0.000000 0.000000 0.000000 -0.116631 -0.848925 -53.265777 0.622586 0.019324 0.190989 -1.371789 0.650311 -0.061600 0.000000 0.000000 0.000000
77.410528 82.251005 273.308985 0.179006 -0.064896 53.682222 -0.053730 0.182668 -53.682035 -0.000000 0.000000 0.000000 -0.811925 -0.805503 0.434046 0.000000 0.000000 0.000000 -0.000000 0.000000 0.000000 -0.000000 0.000000 0.000000 -0.000000 0.000000 0.000000 -5.296486 10.825449 3.600039 0.000000 0.000000 0.000000 0.000000 0.000000 0.000000 -1.846141 -1.659591 1.238899 1.882338 1.618416 -1.292229 0.703387 5.819761 4.720043 -4.489059 3.531778 -7.425084 0.000000 0.000000 0.000000 0.000000 0.000000 0.000000 -0.053730 0.182668 -53.682035 -0.000000 0.000000 0.000000 -59.803329 21.052272 10.318549 0.000000 0.000000 0.000000 -0.169550 -1.313936 -53.863018 0.563238 0.127612 0.254350 -1.699866 0.856054 -0.068506 0.000000 0.000000 0.000000
77.417740 82.275368 273.286510 0.196042 -0.044660 54.157512 -0.078592 0.185069 -54.157308 -0.000000 0.000000 0.000000 -1.027329 -1.047094 0.544409 0.000000 0.000000 0.000000 -0.000000 0.000000 0.000000 -0.000000 0.000000 0.000000 -0.000000 0.000000 0.000000 -6.801696 13.616379 4.736869 0.000000 0.000000 0.000000 0.000000 0.000000 0.000000 -2.264105 -1.849458 1.382224 2.990121 1.358194 -1.106800 -1.833649 9.008145 6.897302 -3.978948 1.698209 -10.339383 0.000000 0.000000 0.000000 0.000000 0.000000 0.000000 -0.078592 0.185069 -54.157308 -0.000000 0.000000 0.000000 -67.454981 22.548884 13.008981 0.000000 0.000000 0.000000 -0.217658 -1.806591 -54.387924 0.321620 0.274918 0.302172 -1.854590 1.007676 -0.065248 0.000000 0.000000 0.000000
77.387772 82.301773 273.240137 0.191672 -0.003423 54.563459 -0.108344 0.158151 -54.563303 -0.000000 0.000000 0.000000 -1.215975 -1.275539 0.638363 0.000000 0.000000 0.000000 -0.000000 0.000000 0.000000 -0.000000 0.000000 0.000000 -0.000000 0.000000 0.000000 -8.046685 15.850649 5.718966 0.000000 0.000000 0.000000 0.000000 0.000000 0.000000 -2.596300 -1.860998 1.400579 3.384588 1.320701 -1.104367 -4.793840 11.966323 9.915873 -2.864283 -2.017473 -13.229724 0.000000 0.000000 0.000000 0.000000 0.000000 0.000000 -0.628478 0.871842 -54.425302 0.883067 0.007880 -0.133387 -72.133091 23.322359 14.771999 0.000000 0.000000 0.000000 -0.259710 -2.327284 -54.838026 -0.078160 0.450202 0.337326 -1.860152 1.115826 -0.053628 0.000000 0.000000 0.000000
